# This file uses centimeters as units for non-parametric coordinates.

mtllib InsideCorner_LP.mtl
g default
v -3.006636 0.000000 -1.002001
v -3.006636 0.000000 -0.502001
v -3.006636 0.000000 -0.002001
v -3.006636 1.000000 -1.002001
v -3.006636 1.000000 -0.502001
v -3.006636 0.607121 -0.002001
v -0.003318 0.607121 -0.001000
v -0.006884 0.000000 -0.001000
v -1.002488 1.000000 -0.999503
v -0.503525 1.000000 -0.498461
v -0.009125 0.607121 -0.002001
v -1.002488 0.000000 -0.999503
v -0.503525 0.000000 -0.498461
v -0.009125 0.000000 -0.002001
v 0.000000 0.000000 0.000000
v -1.000000 1.000000 -3.000000
v -0.500000 1.000000 -3.000000
v 0.000000 0.607121 -3.000000
v -1.000000 0.000000 -3.000000
v -0.500000 0.000000 -3.000000
v 0.000000 0.000000 -3.000000
v -0.007132 0.612725 0.000000
vt 0.289662 0.505581
vt 0.898263 0.498438
vt 0.571160 0.502277
vt 0.477327 0.503378
vt 0.804430 0.499539
vt 0.690494 0.500876
vt 0.698083 0.991053
vt 0.812018 0.989716
vt 0.025020 0.512438
vt 0.147017 0.512115
vt 0.992095 0.497337
vt 0.269014 0.511791
vt 0.269406 0.659925
vt 0.147664 0.756109
vt 0.025667 0.756432
vt 0.482390 0.830434
vt 0.577483 0.910690
vt 0.698077 0.990646
vt 0.294725 0.832636
vt 0.997159 0.824393
vt 0.904585 0.906851
vt 0.812012 0.989309
vt 0.259094 0.496039
vt 0.142899 0.497463
vt 0.140050 0.265071
vt 0.256246 0.263647
vt 0.025584 0.407586
vt 0.023854 0.266496
vt 0.999684 0.492007
vt 0.905851 0.493108
vt 0.899514 0.083798
vt 0.994617 0.164733
vt 0.812018 0.494209
vt 0.804430 0.004033
vt 0.805768 0.004017
vt 0.698083 0.495546
vt 0.690494 0.005370
vt 0.297250 0.500250
vt 0.292184 0.172977
vt 0.479849 0.170774
vt 0.484916 0.498048
vt 0.267670 0.155510
vt 0.267274 0.006009
vt 0.269014 0.006005
vt 0.269406 0.154138
vt 0.572412 0.087637
vt 0.578748 0.496947
vt 0.688792 0.005390
vn -1.000000 0.000000 0.000000
vn -1.000000 0.000000 0.000000
vn -1.000000 0.000000 0.000000
vn -1.000000 0.000000 0.000000
vn -1.000000 0.000000 0.000000
vn -1.000000 0.000000 0.000000
vn 0.000000 1.000000 0.000000
vn -0.000255 0.917866 0.396891
vn 0.280847 0.917928 0.280239
vn 0.000000 1.000000 0.000000
vn -0.000399 0.785140 0.619318
vn -0.000399 0.785140 0.619318
vn 0.000000 0.000000 1.000000
vn -0.000333 0.000001 1.000000
vn -0.000333 0.000001 1.000000
vn 0.000000 0.000000 1.000000
vn 0.000000 -1.000000 0.000000
vn 0.000000 -1.000000 0.000000
vn 0.000000 -1.000000 0.000000
vn 0.000000 -1.000000 0.000000
vn 0.000000 -1.000000 0.000000
vn 0.000000 -1.000000 0.000000
vn -0.241295 0.000709 0.970451
vn -0.241295 0.000709 0.970451
vn -0.705580 -0.000000 -0.708630
vn -0.705580 -0.000000 -0.708630
vn 0.001246 -0.000000 -0.999999
vn 0.001246 -0.000000 -0.999999
vn 0.000000 0.000000 -1.000000
vn 0.000000 0.000000 -1.000000
vn 0.000000 0.000000 -1.000000
vn 0.000000 0.000000 -1.000000
vn 0.000000 0.000000 -1.000000
vn 0.000000 0.000000 -1.000000
vn 0.000000 -1.000000 0.000000
vn 0.000000 -1.000000 0.000000
vn 0.000000 -1.000000 0.000000
vn 0.000000 -1.000000 0.000000
vn 0.000000 -1.000000 0.000000
vn 0.999996 0.002733 0.000553
vn 0.999996 0.002733 0.000553
vn 0.999996 0.002733 0.000553
vn 0.999996 0.002733 0.000553
vn -0.999999 0.000000 -0.001243
vn -0.999999 0.000000 -0.001243
vn 0.000000 0.000000 1.000000
vn 0.000000 0.000000 1.000000
vn 0.000000 0.000000 1.000000
vn 0.000000 0.000000 1.000000
vn 0.397128 0.917763 0.000254
vn 0.000000 1.000000 0.000000
vn 0.617756 0.786370 0.000395
vn 0.617756 0.786370 0.000395
vn 0.617756 0.786370 0.000395
s 1
g Wall_LP10
usemtl initialShadingGroup
f 1/9/1 2/10/2 5/14/3 4/15/4
f 2/10/2 3/12/5 6/13/6 5/14/3
s 2
f 4/4/7 5/3/8 10/17/9 9/16/10
f 5/3/8 6/6/11 11/18/12 10/17/9
s 3
f 3/5/13 14/22/14 11/18/15 6/6/16
s 4
f 12/20/17 13/21/18 2/2/19 1/11/20
f 13/21/18 14/22/21 3/5/22 2/2/19
s 3
f 11/18/15 14/22/14 8/8/23 7/7/24
s 5
f 9/16/25 12/19/26 1/1/27 4/4/28
s 6
f 16/23/29 17/24/30 20/25/31 19/26/32
f 17/24/30 18/27/33 21/28/34 20/25/31
s 4
f 19/29/35 20/30/36 13/31/18 12/32/17
f 20/30/36 21/33/37 15/34/38 8/35/39 13/31/18
s off
f 15/34/40 21/33/41 18/36/42 7/37/43
s 5
f 19/38/44 12/39/26 9/40/25 16/41/45
s off
f 22/42/46 8/43/47 15/44/48 7/45/49
s 2
f 9/40/10 10/46/9 17/47/50 16/41/51
f 10/46/9 22/48/52 7/37/53 18/36/54 17/47/50
