# This file uses centimeters as units for non-parametric coordinates.

mtllib OutsideCorner_HP.mtl
g default
v -6.963354 0.008205 -7.440533
v -6.971791 0.028022 -7.449484
v -6.963753 0.027730 -7.469300
v -6.944344 0.027446 -7.477506
v -6.935185 0.008035 -7.469116
v -6.913529 0.000000 -7.448376
v -6.934127 0.000000 -7.439842
v -6.942660 0.000000 -7.419245
v -6.471791 0.000000 -6.948908
v -6.492012 0.000000 -6.969130
v -6.483636 0.000000 -6.989352
v -6.463414 0.000000 -6.997728
v -6.443193 0.000000 -6.977506
v -6.422971 0.000000 -6.957285
v -6.443193 0.000000 -6.948908
v -6.451569 0.000000 -6.928687
v -5.980297 0.008292 -6.457436
v -6.000665 0.000000 -6.477506
v -5.992209 0.000000 -6.498121
v -5.971791 0.000000 -6.506658
v -5.951688 0.008292 -6.486117
v -5.943481 0.028310 -6.477506
v -5.963499 0.028308 -6.469215
v -5.971791 0.028310 -6.449196
v -6.963345 0.991794 -7.440542
v -6.942660 1.000000 -7.419245
v -6.933815 1.000000 -7.439464
v -6.912464 1.000000 -7.447843
v -6.934466 0.991797 -7.468950
v -6.943768 0.971978 -7.477506
v -6.963583 0.971980 -7.469299
v -6.971791 0.971978 -7.449484
v -6.473333 0.996647 -6.950324
v -6.454966 0.986780 -6.933462
v -6.446342 0.986451 -6.952106
v -6.425516 0.986111 -6.959830
v -6.443516 0.996473 -6.978660
v -6.462928 1.000000 -6.998903
v -6.484325 1.000000 -6.990040
v -6.493188 1.000000 -6.968643
v -5.976717 0.605172 -6.453851
v -5.971791 0.585018 -6.449392
v -5.963699 0.585213 -6.469272
v -5.944161 0.585399 -6.477506
v -5.948450 0.605357 -6.482478
v -5.960686 0.621243 -6.495478
v -5.981246 0.621243 -6.486962
v -5.989763 0.621243 -6.466402
v -2.980167 0.971403 -7.469130
v -3.000388 0.971402 -7.477506
v -3.000389 0.991624 -7.469130
v -3.000388 1.000000 -7.448908
v -2.980167 0.991624 -7.448910
v -2.971791 0.971402 -7.448908
v -2.971791 0.964688 -6.978078
v -2.971791 0.971303 -6.997799
v -2.980143 0.991598 -6.998326
v -3.000318 1.000000 -6.998851
v -3.000237 0.996628 -6.978701
v -3.000168 0.986882 -6.960811
v -2.980059 0.975310 -6.959084
v -2.971791 0.947272 -6.957103
v -2.980006 0.585350 -6.486552
v -2.971791 0.593788 -6.504941
v -2.980005 0.613458 -6.500215
v -3.000756 0.621191 -6.495412
v -3.000765 0.604831 -6.482220
v -3.000756 0.584349 -6.477506
v -3.000388 0.008376 -7.469130
v -3.000388 0.028598 -7.477506
v -2.980167 0.028600 -7.469130
v -2.971791 0.028598 -7.448908
v -2.980167 0.008376 -7.448909
v -3.000388 0.000000 -7.448908
v -3.000388 0.000000 -6.977506
v -3.000388 0.000000 -6.997728
v -2.980167 0.008376 -6.997728
v -2.971791 0.028598 -6.997728
v -2.971791 0.028598 -6.977506
v -2.971791 0.028598 -6.957285
v -2.980167 0.008376 -6.957286
v -3.000388 0.000000 -6.957285
v -3.000385 0.008376 -6.485882
v -3.000388 0.000000 -6.506104
v -2.980167 0.008376 -6.506115
v -2.971791 0.028598 -6.506104
v -2.980167 0.028598 -6.485882
v -3.000388 0.028598 -6.477506
v -6.963414 0.008376 -3.506104
v -6.943193 0.000000 -3.506104
v -6.943194 0.008376 -3.485882
v -6.943193 0.028598 -3.477506
v -6.963414 0.028599 -3.485882
v -6.971791 0.028598 -3.506104
v -6.471791 0.000000 -3.506104
v -6.451569 0.000000 -3.506104
v -6.451570 0.008376 -3.485882
v -6.451569 0.028598 -3.477506
v -6.471791 0.028598 -3.477506
v -6.492012 0.028598 -3.477506
v -6.492012 0.008376 -3.485882
v -6.492012 0.000000 -3.506104
v -5.980167 0.008376 -3.506096
v -5.971791 0.028598 -3.506104
v -5.980167 0.028598 -3.485882
v -6.000388 0.028598 -3.477506
v -6.000400 0.008376 -3.485882
v -6.000388 0.000000 -3.506104
v -6.963414 0.991624 -3.506106
v -6.971791 0.971402 -3.506104
v -6.963414 0.971401 -3.485882
v -6.943193 0.971402 -3.477506
v -6.943194 0.991624 -3.485882
v -6.943193 1.000000 -3.506104
v -6.472972 0.996628 -3.505914
v -6.493083 1.000000 -3.505964
v -6.492544 0.991630 -3.485838
v -6.492006 0.971412 -3.477506
v -6.472343 0.964763 -3.477506
v -6.451388 0.947272 -3.477506
v -6.453367 0.975308 -3.485774
v -6.455096 0.986882 -3.505884
v -5.976564 0.604801 -3.506856
v -5.989924 0.621370 -3.506840
v -5.994617 0.613570 -3.485845
v -5.999225 0.593788 -3.477506
v -5.980822 0.585189 -3.485846
v -5.971791 0.584059 -3.506840
v -6.955083 0.008121 -7.460715
v -6.463414 0.000000 -6.969130
v -5.971902 0.008292 -6.477707
v -6.954878 0.991795 -7.460592
v -6.464543 0.996559 -6.970293
v -5.968415 0.605218 -6.474063
v -2.983884 0.987908 -7.465414
v -2.980117 0.987296 -6.978268
v -2.983753 0.602321 -6.487374
v -2.983883 0.012093 -7.465414
v -2.980167 0.008376 -6.977505
v -2.983884 0.012093 -6.489596
v -6.959698 0.012093 -3.489599
v -6.471789 0.008376 -3.485882
v -5.983880 0.012093 -3.489598
v -6.959698 0.987907 -3.489600
v -6.472534 0.987317 -3.485820
v -5.981697 0.602303 -3.489643
vt 0.302456 0.496755
vt 0.294865 0.511560
vt 0.986684 0.503648
vt 0.902112 0.504575
vt 0.894530 0.505165
vt 0.809964 0.506235
vt 0.799189 0.506904
vt 0.479604 0.494676
vt 0.490327 0.494414
vt 0.482950 0.509625
vt 0.574676 0.493286
vt 0.582705 0.493088
vt 0.575441 0.508909
vt 0.693730 0.491525
vt 0.694641 0.508020
vt 0.302563 0.994866
vt 0.490220 0.992163
vt 0.574681 0.991182
vt 0.582661 0.990447
vt 0.693736 0.989047
vt 0.702283 0.988947
vt 0.806579 0.987783
vt 0.909584 0.987242
vt 0.249681 0.768558
vt 0.144831 0.769843
vt 0.817313 0.987657
vt 0.135432 0.769958
vt 0.030581 0.771243
vt 0.986790 0.005899
vt 0.902119 0.006892
vt 0.472014 0.011439
vt 0.032016 0.013611
vt 0.894540 0.007649
vt 0.809869 0.008643
vt 0.151969 0.013293
vt 0.799135 0.008769
vt 0.694896 0.010112
vt 0.567226 0.010803
vt 0.032626 0.243649
vt 0.142713 0.243360
vt 0.686240 0.010214
vt 0.152608 0.237443
vt 0.262704 0.150903
vt 0.567202 0.508709
vt 0.686268 0.507675
vt 0.252367 0.987657
vt 0.147533 0.988919
vt 0.138007 0.983451
vt 0.031921 0.902592
vt 0.994255 0.986248
vt 0.901984 0.986663
vt 0.472121 0.509551
vt 0.479495 0.992790
vt 0.142101 0.013319
vt 0.262055 0.013001
vt 0.482756 0.011814
vt 0.575216 0.011360
vt 0.994162 0.488502
vt 0.909592 0.489558
vt 0.901994 0.489147
vt 0.817375 0.490101
vt 0.806634 0.489646
vt 0.702160 0.490904
vt 0.295083 0.013516
vt 0.297209 0.497560
vt 0.999642 0.489316
vt 0.294037 0.508206
vt 0.301625 0.500199
vt 0.992136 0.502678
vt 0.289703 0.510922
vt 0.995551 0.492056
vt 0.987962 0.500062
vt 0.905808 0.489358
vt 0.902116 0.501070
vt 0.909705 0.493063
vt 0.898335 0.504864
vt 0.901997 0.493153
vt 0.894408 0.501160
vt 0.811970 0.488942
vt 0.808468 0.502169
vt 0.816057 0.494162
vt 0.804557 0.507505
vt 0.807601 0.494261
vt 0.800013 0.502268
vt 0.484882 0.495278
vt 0.481506 0.506006
vt 0.489095 0.497999
vt 0.477383 0.508856
vt 0.480496 0.498100
vt 0.472908 0.506107
vt 0.578606 0.493050
vt 0.575262 0.504905
vt 0.582850 0.496899
vt 0.571211 0.508957
vt 0.574945 0.496991
vt 0.567356 0.504998
vt 0.697924 0.490566
vt 0.694493 0.503506
vt 0.702081 0.495500
vt 0.690455 0.508484
vt 0.694485 0.495589
vt 0.686897 0.503595
vt 0.481590 0.996270
vt 0.259044 0.990104
vt 0.484862 0.992481
vt 0.254974 0.994272
vt 0.488243 0.996192
vt 0.142934 0.987512
vt 0.574807 0.995176
vt 0.147779 0.995586
vt 0.578668 0.990815
vt 0.138649 0.992390
vt 0.583072 0.995079
vt 0.025533 0.901619
vt 0.701434 0.993690
vt 0.694756 0.993769
vt 0.028854 0.908274
vt 0.698000 0.989007
vt 0.297217 0.996297
vt 0.999651 0.988053
vt 0.256296 0.765949
vt 0.300576 0.998395
vt 0.996358 0.990229
vt 0.252128 0.761881
vt 0.905786 0.986953
vt 0.144858 0.763196
vt 0.909734 0.991246
vt 0.140132 0.769870
vt 0.901969 0.991337
vt 0.135243 0.763314
vt 0.811948 0.987727
vt 0.027976 0.764628
vt 0.815347 0.992353
vt 0.808682 0.992432
vt 0.023905 0.768811
vt 0.992128 0.003967
vt 0.289695 0.012211
vt 0.029343 0.006640
vt 0.988770 0.001870
vt 0.292988 0.010035
vt 0.025031 0.010976
vt 0.898332 0.007270
vt 0.152064 0.006315
vt 0.894381 0.002977
vt 0.147036 0.013275
vt 0.902145 0.002886
vt 0.141969 0.006341
vt 0.804497 0.008694
vt 0.269025 0.010343
vt 0.801093 0.004072
vt 0.807758 0.003994
vt 0.264686 0.006016
vt 0.477386 0.011619
vt 0.025655 0.246321
vt 0.474001 0.007911
vt 0.480655 0.007833
vt 0.029993 0.250634
vt 0.571221 0.011081
vt 0.142551 0.250336
vt 0.567227 0.006817
vt 0.147504 0.241801
vt 0.575483 0.006720
vt 0.152074 0.246838
vt 0.690570 0.010155
vt 0.265983 0.156843
vt 0.687138 0.005409
vt 0.693875 0.005330
vt 0.269395 0.149742
vt 0.289662 0.508257
vt 0.992095 0.500014
vt 0.999684 0.492007
vt 0.297250 0.500250
vt 0.898263 0.501115
vt 0.905851 0.493108
vt 0.804430 0.502216
vt 0.812018 0.494209
vt 0.477327 0.506055
vt 0.484916 0.498048
vt 0.571160 0.504954
vt 0.578748 0.496947
vt 0.690494 0.503553
vt 0.698083 0.495546
vt 0.484916 0.996231
vt 0.259094 0.994222
vt 0.578748 0.995130
vt 0.142899 0.995646
vt 0.025584 0.905769
vt 0.698083 0.993730
vt 0.297250 0.998434
vt 0.256246 0.761830
vt 0.999684 0.990190
vt 0.140050 0.763255
vt 0.905851 0.991291
vt 0.812018 0.992392
vt 0.023854 0.764679
vt 0.992095 0.001831
vt 0.025020 0.006651
vt 0.289662 0.010074
vt 0.147017 0.006328
vt 0.898263 0.002932
vt 0.804430 0.004033
vt 0.269014 0.006005
vt 0.477327 0.007872
vt 0.025667 0.250645
vt 0.147664 0.250322
vt 0.571160 0.006770
vt 0.690494 0.005370
vt 0.269406 0.154138
vn -0.999976 -0.006604 -0.002083
vn -0.921793 -0.387681 -0.001249
vn -0.922080 -0.386996 0.001348
vn -0.999960 -0.008699 0.002098
vn -0.373773 -0.927518 -0.001877
vn -0.049984 -0.998750 -0.000054
vn -0.018623 -0.999824 0.002219
vn -0.375469 -0.926834 0.001294
vn -0.002073 -0.006510 -0.999977
vn -0.386029 0.000153 -0.922487
vn -0.385910 0.010713 -0.922474
vn -0.002088 0.006579 -0.999976
vn -0.925280 -0.010338 -0.379143
vn -0.999976 0.006612 -0.002068
vn -0.925183 0.010419 -0.379378
vn -0.000051 -0.998768 -0.049631
vn -0.001920 -0.929022 -0.370020
vn 0.001317 -0.928311 -0.371802
vn 0.002220 -0.999828 -0.018433
vn -0.001231 -0.390126 -0.920761
vn 0.002098 -0.008673 -0.999960
vn 0.001402 -0.389415 -0.921061
vn -0.013971 -0.999810 -0.013611
vn 0.000000 -1.000000 0.000000
vn 0.000000 -1.000000 0.000000
vn 0.000000 -1.000000 0.000000
vn 0.000000 -1.000000 0.000000
vn 0.000000 -0.999997 0.002419
vn 0.000000 -0.999997 0.002266
vn 0.000000 -1.000000 0.000000
vn 0.000000 -0.999997 0.002596
vn 0.000000 -1.000000 0.000000
vn 0.000000 -1.000000 0.000000
vn 0.002419 -0.999997 0.000000
vn 0.002597 -0.999997 0.000000
vn 0.002266 -0.999997 0.000000
vn 0.000000 -1.000000 0.000000
vn 0.005453 -0.999970 0.005441
vn 0.006014 -0.999982 0.000039
vn 0.000039 -0.999982 0.006033
vn 0.379375 -0.925243 0.000544
vn 0.379679 -0.925117 0.001723
vn 0.016404 -0.999862 0.002572
vn 0.921557 -0.388225 0.003745
vn 0.999836 -0.017905 0.002735
vn 0.999889 -0.014640 0.002903
vn 0.922221 -0.386660 0.001756
vn 0.002754 -0.017977 0.999835
vn 0.003715 -0.390267 0.920694
vn 0.001738 -0.388692 0.921366
vn 0.002902 -0.014714 0.999888
vn 0.000523 -0.925799 0.378015
vn 0.002572 -0.999862 0.016407
vn 0.001692 -0.925669 0.378331
vn 0.924786 -0.021410 0.379884
vn 0.924973 0.012016 0.379842
vn 0.999951 0.009522 0.002765
vn 0.385314 -0.021485 0.922535
vn 0.002763 0.009484 0.999951
vn 0.385483 0.011833 0.922639
vn -0.050190 0.998740 -0.000057
vn -0.373786 0.927513 -0.001961
vn -0.375547 0.926802 0.001293
vn -0.018665 0.999823 0.002219
vn -0.921710 0.387878 -0.001301
vn -0.999960 0.008703 0.002098
vn -0.922005 0.387176 0.001347
vn -0.000057 0.998738 -0.050215
vn -0.013358 0.999814 -0.013937
vn 0.002230 0.999995 0.002233
vn 0.000015 0.999997 0.002471
vn 0.002461 0.999997 0.000014
vn -0.001279 0.390013 -0.920809
vn 0.001333 0.389308 -0.921107
vn 0.002097 0.008757 -0.999959
vn -0.001943 0.928859 -0.370427
vn 0.002222 0.999823 -0.018668
vn 0.001253 0.928158 -0.372184
vn 0.604585 0.796535 0.003077
vn 0.255819 0.966724 0.000844
vn 0.326532 0.945183 0.002429
vn 0.613023 0.790063 0.002054
vn 0.006737 0.999975 0.002300
vn 0.003180 0.796489 0.604645
vn 0.339030 0.877782 0.338463
vn 0.342062 0.872056 0.350018
vn 0.000927 0.784706 0.619867
vn 0.619893 0.784686 0.000928
vn 0.000866 0.966290 0.257456
vn 0.002389 0.943787 0.330546
vn 0.002303 0.999973 0.006917
vn 0.002055 0.790008 0.613094
vn 0.874371 0.485254 0.002165
vn 0.897506 0.440997 0.002164
vn 0.999960 0.008385 0.002989
vn 0.623378 0.781916 0.002694
vn 0.002175 0.486331 0.873772
vn 0.002164 0.442846 0.896595
vn 0.002694 0.781991 0.623284
vn 0.002985 0.008375 0.999960
vn 0.382080 0.005400 -0.924114
vn 0.382080 -0.005399 -0.924113
vn 0.924114 0.005400 -0.382079
vn 0.999808 0.008554 -0.017644
vn 0.999808 -0.008570 -0.017642
vn 0.924114 -0.005399 -0.382080
vn 0.924758 0.380395 -0.011061
vn 0.924588 0.380950 0.003760
vn 0.999962 0.008698 0.000122
vn 0.382268 0.923984 -0.011136
vn 0.384284 0.923180 0.008050
vn 0.999924 0.010734 0.006050
vn 0.999962 -0.008758 0.000000
vn 0.999962 -0.008705 0.000000
vn 0.999567 0.023163 0.018162
vn 0.999941 -0.010852 0.000000
vn 0.921969 0.305458 0.238050
vn 0.921182 0.303554 0.243472
vn 0.999912 0.005861 0.011881
vn 0.385606 0.726645 0.568591
vn 0.384746 0.722329 0.574640
vn 0.918082 0.003947 0.396370
vn 0.919332 -0.009653 0.393364
vn 0.999851 -0.010935 0.013368
vn 0.390367 0.005453 0.920643
vn 0.390066 -0.008286 0.920750
vn 0.381426 -0.924333 -0.011095
vn 0.382687 -0.923878 0.000000
vn 0.924334 -0.381424 -0.011095
vn 0.923878 -0.382686 0.000000
vn 0.382687 -0.923878 0.000000
vn 0.381429 -0.924332 0.011086
vn 0.923881 -0.382680 0.000000
vn 0.924335 -0.381421 0.011088
vn -0.017640 -0.008569 0.999808
vn -0.011094 -0.381422 0.924335
vn 0.000000 -0.382684 0.923880
vn 0.000000 -0.008704 0.999962
vn -0.011095 -0.924334 0.381422
vn 0.000000 -0.923879 0.382684
vn -0.924115 -0.005400 0.382076
vn -0.924115 0.005400 0.382076
vn -0.382076 -0.005399 0.924115
vn -0.017641 0.008542 0.999808
vn -0.382076 0.005400 0.924115
vn 0.000000 -0.010853 0.999941
vn 0.000000 -0.382684 0.923879
vn 0.011086 -0.381424 0.924334
vn 0.013464 -0.010932 0.999850
vn 0.000000 -0.923879 0.382684
vn 0.011084 -0.924333 0.381427
vn 0.000000 -0.008765 0.999962
vn 0.006084 0.010717 0.999924
vn 0.000121 0.008688 0.999962
vn 0.018300 0.023326 0.999560
vn 0.395683 -0.009546 0.918338
vn 0.398827 0.004105 0.917017
vn 0.011924 0.005883 0.999912
vn 0.921671 -0.008091 0.387889
vn 0.921629 0.005752 0.388030
vn -0.011219 0.924075 0.382047
vn 0.008013 0.923280 0.384043
vn -0.011157 0.380596 0.924674
vn 0.003699 0.381170 0.924498
vn 0.569315 0.727255 0.383381
vn 0.575467 0.722919 0.382395
vn 0.239581 0.307113 0.921023
vn 0.245117 0.305405 0.920133
vn -0.189483 -0.964353 -0.184714
vn -0.806629 -0.494190 -0.324232
vn -0.340708 -0.501580 -0.795195
vn -0.340708 -0.501580 -0.795195
vn 0.000000 -1.000000 0.000000
vn 0.809476 -0.482022 0.335265
vn 0.196468 -0.960924 0.195003
vn 0.335452 -0.484376 0.807992
vn -0.801125 0.495913 -0.335065
vn -0.184350 0.964228 -0.190472
vn -0.329989 0.498966 -0.801336
vn 0.149533 0.976933 0.152453
vn 0.761464 0.567069 0.314016
vn 0.316536 0.566995 0.760475
vn 0.887917 0.325266 -0.325279
vn 0.325245 0.325278 -0.887925
vn 0.325247 0.887919 -0.325291
vn 0.927273 0.342501 0.151189
vn 0.395381 0.852750 0.341308
vn 0.364175 0.407100 0.837643
vn 0.852736 0.228334 0.469793
vn 0.325282 -0.887905 -0.325293
vn 0.325292 -0.325257 -0.887915
vn 0.887912 -0.325257 -0.325301
vn 0.382684 -0.923879 0.000000
vn 0.923879 -0.382685 0.000000
vn 0.325246 -0.325171 0.887963
vn 0.325381 -0.887923 0.325145
vn 0.887926 -0.325344 0.325174
vn -0.887916 -0.325268 0.325277
vn -0.325284 -0.887914 0.325268
vn -0.325285 -0.325257 0.887917
vn 0.000000 -0.923879 0.382684
vn 0.000000 -0.382684 0.923879
vn 0.325100 -0.887929 0.325411
vn 0.887965 -0.325138 0.325274
vn 0.325144 -0.325319 0.887947
vn -0.325306 0.887909 0.325261
vn -0.887913 0.325287 0.325268
vn -0.325302 0.325271 0.887906
vn 0.342668 0.852447 0.394858
vn 0.152349 0.342685 0.927015
vn 0.839436 0.407971 0.359037
vn 0.475493 0.231101 0.848822
s 1
g OutsideCorner_HP
usemtl initialShadingGroup
f 2/1/1 1/65/2 89/137/3 94/64/4
s 2
f 1/66/5 8/58/6 90/29/7 89/136/8
s 3
f 4/2/9 3/67/10 31/90/11 30/52/12
s 1
f 3/68/13 2/1/1 32/8/14 31/89/15
s 2
f 6/3/16 5/69/17 69/120/18 74/50/19
s 3
f 5/70/20 4/2/9 70/16/21 69/119/22
s 2
f 8/58/6 7/71/23 11/75/24 10/59/25
f 7/72/23 6/3/16 12/4/26 11/74/24
f 10/59/25 9/73/27 95/142/28 102/30/29
f 9/73/27 16/60/30 96/33/31 95/142/28
f 14/5/32 13/76/33 75/125/34 82/51/35
f 13/76/33 12/4/26 76/23/36 75/125/34
f 16/60/30 15/77/37 19/81/38 18/61/39
f 15/78/37 14/5/32 20/6/40 19/80/38
f 18/61/39 17/79/41 103/148/42 108/34/43
s 7
f 17/79/44 24/62/45 104/36/46 103/148/47
f 22/7/48 21/82/49 83/131/50 88/22/51
s 2
f 21/82/52 20/6/40 84/26/53 83/131/54
s 7
f 24/62/45 23/83/55 43/99/56 42/63/57
f 23/84/58 22/7/48 44/15/59 43/98/60
f 26/9/61 25/85/62 109/153/63 114/56/64
s 1
f 25/85/65 32/8/14 110/31/66 109/153/67
s 7
f 28/10/68 27/86/69 39/96/70 38/44/71
f 27/87/69 26/9/61 40/11/72 39/95/70
s 3
f 30/52/12 29/88/73 51/105/74 50/53/75
s 7
f 29/88/76 28/10/68 52/17/77 51/105/78
f 34/12/79 33/91/80 115/158/81 122/57/82
f 33/91/80 40/11/72 116/38/83 115/158/81
f 36/13/84 35/92/85 47/102/86 46/45/87
f 35/93/85 34/12/79 48/14/88 47/101/86
f 38/44/71 37/94/89 59/111/90 58/18/91
f 37/94/89 36/13/84 60/19/92 59/111/90
f 42/63/57 41/97/93 123/164/94 128/37/95
f 41/97/93 48/14/88 124/41/96 123/164/94
f 46/45/87 45/100/97 67/118/98 66/20/99
f 45/100/97 44/15/59 68/21/100 67/118/98
s 3
f 50/53/75 49/103/101 71/122/102 70/16/21
s 13
f 49/104/103 54/46/104 72/24/105 71/121/106
f 54/46/104 53/106/107 57/110/108 56/47/109
s 7
f 53/107/110 52/17/77 58/18/91 57/109/111
s 13
f 56/47/109 55/108/112 79/128/113 78/25/114
f 55/108/112 62/48/115 80/27/116 79/128/113
f 62/48/115 61/112/117 65/117/118 64/49/119
s 7
f 61/113/120 60/19/92 66/20/99 65/116/121
s 13
f 64/49/119 63/114/122 87/135/123 86/28/124
s 7
f 63/115/125 68/21/100 88/22/51 87/134/126
s 2
f 74/50/19 73/123/127 77/127/128 76/23/36
s 13
f 73/124/129 72/24/105 78/25/114 77/126/130
s 2
f 82/51/35 81/129/131 85/133/132 84/26/53
s 13
f 81/130/133 80/27/116 86/28/124 85/132/134
s 14
f 92/32/135 91/138/136 101/147/137 100/54/138
s 2
f 91/139/139 90/29/7 102/30/29 101/146/140
s 1
f 94/64/4 93/140/141 111/155/142 110/31/66
s 14
f 93/141/143 92/32/135 112/39/144 111/154/145
f 98/35/146 97/143/147 107/152/148 106/55/149
s 2
f 97/144/150 96/33/31 108/34/43 107/151/151
s 14
f 100/54/138 99/145/152 119/161/153 118/40/154
f 99/145/152 98/35/146 120/42/155 119/161/153
f 106/55/149 105/149/156 127/168/157 126/43/158
s 7
f 105/150/159 104/36/46 128/37/95 127/167/160
f 114/56/64 113/156/161 117/160/162 116/38/83
s 14
f 113/157/163 112/39/144 118/40/154 117/159/164
s 7
f 122/57/82 121/162/165 125/166/166 124/41/96
s 14
f 121/163/167 120/42/155 126/43/158 125/165/168
s 7
f 28/10/68 38/44/71 58/18/91 52/17/77
f 36/13/84 46/45/87 66/20/99 60/19/92
s 13
f 54/46/104 56/47/109 78/25/114 72/24/105
f 62/48/115 64/49/119 86/28/124 80/27/116
s 2
f 74/50/19 76/23/36 12/4/26 6/3/16
f 82/51/35 84/26/53 20/6/40 14/5/32
s 7
f 22/7/48 88/22/51 68/21/100 44/15/59
s 3
f 70/16/21 4/2/9 30/52/12 50/53/75
s 14
f 92/32/135 100/54/138 118/40/154 112/39/144
f 98/35/146 106/55/149 126/43/158 120/42/155
s 7
f 114/56/64 116/38/83 40/11/72 26/9/61
f 122/57/82 124/41/96 48/14/88 34/12/79
s 2
f 8/58/6 10/59/25 102/30/29 90/29/7
f 16/60/30 18/61/39 108/34/43 96/33/31
s 7
f 104/36/46 24/62/45 42/63/57 128/37/95
s 1
f 2/1/1 94/64/4 110/31/66 32/8/14
s 2
f 7/71/23 8/58/6 1/66/5 129/171/169
s 1
f 1/65/2 2/1/1 3/68/13 129/172/170
s 3
f 3/67/171 4/2/9 5/70/20 129/169/172
s 2
f 5/69/17 6/3/16 7/72/23 129/170/169
f 15/77/37 16/60/30 9/73/27 130/174/173
f 9/73/27 10/59/25 11/75/24 130/174/173
f 11/74/24 12/4/26 13/76/33 130/173/173
f 13/76/33 14/5/32 15/78/37 130/173/173
s 7
f 23/83/55 24/62/45 17/79/44 131/176/174
s 2
f 17/79/41 18/61/39 19/81/38 131/176/175
f 19/80/38 20/6/40 21/82/52 131/175/175
s 7
f 21/82/49 22/7/48 23/84/58 131/175/176
s 1
f 31/89/15 32/8/14 25/85/65 132/178/177
s 7
f 25/85/62 26/9/61 27/87/69 132/178/178
f 27/86/69 28/10/68 29/88/76 132/177/178
s 3
f 29/88/73 30/52/12 31/90/11 132/177/179
s 7
f 39/95/70 40/11/72 33/91/80 133/180/180
f 33/91/80 34/12/79 35/93/85 133/180/180
f 35/92/85 36/13/84 37/94/89 133/179/180
f 37/94/89 38/44/71 39/96/70 133/179/180
f 47/101/86 48/14/88 41/97/93 134/182/181
f 41/97/93 42/63/57 43/99/56 134/182/181
f 43/98/60 44/15/59 45/100/97 134/181/182
f 45/100/97 46/45/87 47/102/86 134/181/182
s 13
f 53/106/107 54/46/104 49/104/103 135/184/183
s 3
f 49/103/101 50/53/75 51/105/74 135/183/184
s 7
f 51/105/78 52/17/77 53/107/110 135/183/185
s 13
f 61/112/117 62/48/115 55/108/112 136/186/186
f 55/108/112 56/47/109 57/110/108 136/186/186
s 7
f 57/109/111 58/18/91 59/111/90 136/185/187
f 59/111/90 60/19/92 61/113/120 136/185/187
f 67/118/98 68/21/100 63/115/125 137/188/188
s 13
f 63/114/122 64/49/119 65/117/118 137/187/189
s 7
f 65/116/121 66/20/99 67/118/98 137/188/188
s 2
f 73/123/127 74/50/19 69/120/18 138/191/190
s 3
f 69/119/22 70/16/21 71/122/102 138/189/191
s 13
f 71/121/106 72/24/105 73/124/129 138/190/192
s 2
f 81/129/131 82/51/35 75/125/34 139/193/193
f 75/125/34 76/23/36 77/127/128 139/193/193
s 13
f 77/126/130 78/25/114 79/128/113 139/192/194
f 79/128/113 80/27/116 81/130/133 139/192/194
s 7
f 87/134/126 88/22/51 83/131/50 140/194/195
s 2
f 83/131/54 84/26/53 85/133/132 140/194/196
s 13
f 85/132/134 86/28/124 87/135/123 140/195/197
s 1
f 93/140/141 94/64/4 89/137/3 141/198/198
s 2
f 89/136/8 90/29/7 91/139/139 141/196/199
s 14
f 91/138/136 92/32/135 93/141/143 141/197/200
s 2
f 101/146/140 102/30/29 95/142/28 142/200/201
f 95/142/28 96/33/31 97/144/150 142/200/201
s 14
f 97/143/147 98/35/146 99/145/152 142/199/202
f 99/145/152 100/54/138 101/147/137 142/199/202
s 2
f 107/151/151 108/34/43 103/148/42 143/201/203
s 7
f 103/148/47 104/36/46 105/150/159 143/201/204
s 14
f 105/149/156 106/55/149 107/152/148 143/202/205
s 7
f 113/156/161 114/56/64 109/153/63 144/203/206
s 1
f 109/153/67 110/31/66 111/155/142 144/203/207
s 14
f 111/154/145 112/39/144 113/157/163 144/204/208
s 7
f 121/162/165 122/57/82 115/158/81 145/206/209
f 115/158/81 116/38/83 117/160/162 145/206/209
s 14
f 117/159/164 118/40/154 119/161/153 145/205/210
f 119/161/153 120/42/155 121/163/167 145/205/210
s 7
f 127/167/160 128/37/95 123/164/94 146/207/211
f 123/164/94 124/41/96 125/166/166 146/207/211
s 14
f 125/165/168 126/43/158 127/168/157 146/208/212
