# This file uses centimeters as units for non-parametric coordinates.

mtllib OutsideBend_LP.mtl
g default
v 2.369373 0.000000 -0.001377
v 2.869373 0.000000 -0.001218
v 3.369373 0.000000 -0.001058
v 2.369373 1.000000 -0.001377
v 2.869373 1.000000 -0.001218
v 3.369373 0.607121 -0.001058
v 3.635764 1.000000 -3.055429
v 3.989161 1.000000 -2.701719
v 4.342558 0.607121 -2.348010
v 3.635764 0.000000 -3.055429
v 3.989161 0.000000 -2.701719
v 4.342558 0.000000 -2.348010
v 3.635012 0.000000 -3.054677
v 3.988496 0.000000 -2.701055
v 4.341980 0.000000 -2.347432
v 3.635012 1.000000 -3.054677
v 3.988496 1.000000 -2.701055
v 4.341980 0.607121 -2.347432
v 6.689711 1.000000 -4.319120
v 6.689711 1.000000 -3.819120
v 6.689711 0.607121 -3.319120
v 6.689711 0.000000 -4.319120
v 6.689711 0.000000 -3.819120
v 6.689711 0.000000 -3.319120
v 2.698775 1.000000 -1.654374
v 2.698775 0.000000 -1.654374
v 3.160642 0.000000 -1.462856
v 3.622509 0.000000 -1.271339
v 3.622509 0.607121 -1.271339
v 3.160642 1.000000 -1.462856
v 5.036664 1.000000 -3.990772
v 5.036664 0.000000 -3.990772
v 5.227887 0.000000 -3.528783
v 5.419110 0.000000 -3.066794
v 5.419110 0.607121 -3.066794
v 5.227887 1.000000 -3.528783
v 2.452658 1.000000 -0.844100
v 2.452658 0.000000 -0.844100
v 2.943017 0.000000 -0.746383
v 3.433375 0.000000 -0.648666
v 3.433375 0.607121 -0.648666
v 2.943017 1.000000 -0.746383
v 3.098263 0.000000 -2.401051
v 3.098263 1.000000 -2.401051
v 3.513883 1.000000 -2.123095
v 3.929504 0.607121 -1.845139
v 3.929504 0.000000 -1.845139
v 3.513883 0.000000 -2.123095
v 4.289732 1.000000 -3.591761
v 4.289732 0.000000 -3.591761
v 4.567423 0.000000 -3.175963
v 4.845114 0.000000 -2.760165
v 4.845114 0.607121 -2.760165
v 4.567423 1.000000 -3.175963
v 5.847095 0.000000 -4.236372
v 5.847095 1.000000 -4.236372
v 5.944499 1.000000 -3.745951
v 6.041903 0.607121 -3.255531
v 6.041903 0.000000 -3.255531
v 5.944499 0.000000 -3.745951
v 2.390312 1.000000 -0.424785
v 2.390312 0.000000 -0.424785
v 2.887888 0.000000 -0.375610
v 3.385464 0.000000 -0.326435
v 3.385464 0.607121 -0.326435
v 2.887888 1.000000 -0.375610
v 2.555810 0.000000 -1.255283
v 2.555810 1.000000 -1.255283
v 3.034228 1.000000 -1.109966
v 3.512645 0.607121 -0.964649
v 3.512645 0.000000 -0.964649
v 3.034228 0.000000 -1.109966
v 2.880175 1.000000 -2.037527
v 2.880175 0.000000 -2.037527
v 3.321042 0.000000 -1.801654
v 3.761910 0.000000 -1.565781
v 3.761910 0.607121 -1.565781
v 3.321042 1.000000 -1.801654
v 3.350937 0.000000 -2.741445
v 3.350937 1.000000 -2.741445
v 3.737307 1.000000 -2.424083
v 4.123677 0.607121 -2.106722
v 4.123677 0.000000 -2.106722
v 3.737307 0.000000 -2.424083
v 3.949178 1.000000 -3.339304
v 3.949178 0.000000 -3.339304
v 4.266293 0.000000 -2.952731
v 4.583407 0.000000 -2.566159
v 4.583407 0.607121 -2.566159
v 4.266293 1.000000 -2.952731
v 4.653396 0.000000 -3.809616
v 4.653396 1.000000 -3.809616
v 4.888987 1.000000 -3.368599
v 5.124579 0.607121 -2.927581
v 5.124579 0.000000 -2.927581
v 4.888987 0.000000 -3.368599
v 5.435846 1.000000 -4.133482
v 5.435846 0.000000 -4.133482
v 5.580858 0.000000 -3.654972
v 5.725870 0.000000 -3.176463
v 5.725870 0.607121 -3.176463
v 5.580858 1.000000 -3.654972
v 6.266450 0.000000 -4.298450
v 6.266450 1.000000 -4.298450
v 6.315307 1.000000 -3.800843
v 6.364165 0.607121 -3.303236
v 6.364165 0.000000 -3.303236
v 6.315307 0.000000 -3.800843
vt 0.289662 0.505557
vt 0.898263 0.498415
vt 0.571160 0.502254
vt 0.477327 0.503355
vt 0.804430 0.499516
vt 0.690494 0.500853
vt 0.698083 0.991030
vt 0.905851 0.988591
vt 0.999684 0.987490
vt 0.812018 0.989692
vt 0.025020 0.015715
vt 0.147017 0.015392
vt 0.484916 0.993531
vt 0.578748 0.992430
vt 0.297250 0.995734
vt 0.992095 0.497314
vt 0.269014 0.015068
vt 0.269406 0.163202
vt 0.147664 0.259386
vt 0.025667 0.259709
vt 0.477327 0.007872
vt 0.571160 0.006770
vt 0.578748 0.496947
vt 0.484916 0.498048
vt 0.690494 0.005370
vt 0.698083 0.495546
vt 0.259094 0.749823
vt 0.142899 0.751247
vt 0.140050 0.518856
vt 0.256246 0.517431
vt 0.025584 0.661370
vt 0.023854 0.520280
vt 0.999684 0.492007
vt 0.905851 0.493108
vt 0.898263 0.002932
vt 0.992095 0.001831
vt 0.812018 0.494209
vt 0.804430 0.004033
vt 0.297250 0.500250
vt 0.289662 0.010074
vt 0.481121 0.748443
vt 0.293456 0.750645
vt 0.995890 0.742402
vt 0.902057 0.743503
vt 0.808224 0.744604
vt 0.694288 0.745941
vt 0.574954 0.747342
vt 0.481121 0.252960
vt 0.293456 0.255162
vt 0.995890 0.246919
vt 0.902057 0.248020
vt 0.808224 0.249121
vt 0.694288 0.250458
vt 0.574954 0.251859
vt 0.479224 0.625899
vt 0.291559 0.628101
vt 0.993992 0.619858
vt 0.900160 0.620959
vt 0.806327 0.622060
vt 0.692391 0.623397
vt 0.573057 0.624798
vt 0.295353 0.873189
vt 0.997787 0.864946
vt 0.483019 0.870987
vt 0.576851 0.869886
vt 0.696186 0.868486
vt 0.810121 0.867148
vt 0.903954 0.866047
vt 0.479224 0.130416
vt 0.291559 0.132618
vt 0.993992 0.124375
vt 0.900160 0.125476
vt 0.806327 0.126577
vt 0.692391 0.127914
vt 0.573057 0.129315
vt 0.295353 0.377706
vt 0.997787 0.369463
vt 0.483019 0.375504
vt 0.576851 0.374403
vt 0.696186 0.373002
vt 0.810121 0.371665
vt 0.903954 0.370564
vt 0.478276 0.564627
vt 0.290610 0.566829
vt 0.993044 0.558586
vt 0.899211 0.559687
vt 0.805378 0.560788
vt 0.691443 0.562125
vt 0.572109 0.563526
vt 0.292507 0.689373
vt 0.994941 0.681130
vt 0.480173 0.687171
vt 0.574006 0.686070
vt 0.693340 0.684669
vt 0.807276 0.683332
vt 0.901108 0.682231
vt 0.482070 0.809715
vt 0.294405 0.811917
vt 0.996838 0.803674
vt 0.903005 0.804775
vt 0.809173 0.805876
vt 0.695237 0.807213
vt 0.575903 0.808614
vt 0.296302 0.934461
vt 0.998735 0.926218
vt 0.483967 0.932259
vt 0.577800 0.931158
vt 0.697134 0.929758
vt 0.811070 0.928420
vt 0.904902 0.927319
vt 0.478276 0.069144
vt 0.290610 0.071346
vt 0.993044 0.063103
vt 0.899211 0.064204
vt 0.805378 0.065305
vt 0.691443 0.066642
vt 0.572109 0.068043
vt 0.292507 0.193890
vt 0.994941 0.185647
vt 0.480173 0.191688
vt 0.574006 0.190587
vt 0.693340 0.189186
vt 0.807276 0.187849
vt 0.901108 0.186748
vt 0.482070 0.314232
vt 0.294405 0.316434
vt 0.996838 0.308191
vt 0.903005 0.309292
vt 0.809173 0.310393
vt 0.695237 0.311730
vt 0.575903 0.313131
vt 0.296302 0.438978
vt 0.998735 0.430735
vt 0.483967 0.436776
vt 0.577800 0.435675
vt 0.697134 0.434274
vt 0.811070 0.432937
vt 0.904902 0.431836
vn -0.000319 0.000000 1.000000
vn -0.000319 0.000000 1.000000
vn -0.000319 0.000000 1.000000
vn -0.000319 0.000000 1.000000
vn -0.000319 0.000000 1.000000
vn -0.000319 0.000000 1.000000
vn 0.000000 1.000000 -0.000000
vn 0.335579 0.941866 0.016596
vn 0.334003 0.941994 0.033009
vn 0.000000 1.000000 0.000000
vn 0.617548 0.785940 0.030540
vn 0.614847 0.786302 0.060765
vn 0.000000 -1.000000 0.000000
vn 0.000000 -1.000000 0.000000
vn 0.000000 -1.000000 0.000000
vn 0.000000 -1.000000 0.000000
vn 0.000000 -1.000000 0.000000
vn 0.000000 -1.000000 0.000000
vn 0.998779 0.000000 0.049394
vn 0.995152 0.000000 0.098350
vn 0.995152 0.000000 0.098350
vn 0.998779 0.000000 0.049394
vn -0.995152 0.000000 -0.098350
vn -0.995152 0.000000 -0.098350
vn -0.998779 0.000000 -0.049394
vn -0.998779 0.000000 -0.049394
vn 0.000000 1.000000 0.000000
vn 0.225586 0.941866 0.248997
vn 0.212866 0.941994 0.259490
vn 0.000000 1.000000 0.000000
vn 0.415133 0.785940 0.458217
vn 0.391854 0.786302 0.477681
vn 1.000000 0.000000 0.000000
vn 1.000000 0.000000 0.000000
vn 1.000000 0.000000 0.000000
vn 1.000000 0.000000 0.000000
vn 1.000000 0.000000 0.000000
vn 1.000000 0.000000 0.000000
vn 0.000000 -1.000000 0.000000
vn 0.000000 -1.000000 0.000000
vn 0.000000 -1.000000 0.000000
vn 0.000000 -1.000000 0.000000
vn 0.000000 -1.000000 0.000000
vn 0.000000 -1.000000 0.000000
vn 0.671408 0.000000 0.741088
vn 0.634230 0.000000 0.773144
vn 0.634230 0.000000 0.773144
vn 0.671408 0.000000 0.741088
vn -0.634230 0.000000 -0.773144
vn -0.634230 0.000000 -0.773144
vn -0.671408 0.000000 -0.741088
vn -0.671408 0.000000 -0.741088
vn -0.740660 0.000000 -0.671881
vn -0.772740 0.000000 -0.634723
vn -0.772740 0.000000 -0.634723
vn -0.740660 0.000000 -0.671881
vn 0.000000 -1.000000 0.000000
vn 0.000000 -1.000000 0.000000
vn 0.000000 -1.000000 0.000000
vn 0.000000 -1.000000 0.000000
vn 0.000000 -1.000000 0.000000
vn 0.000000 -1.000000 0.000000
vn 0.772740 0.000000 0.634723
vn 0.772740 0.000000 0.634723
vn 0.740660 0.000000 0.671880
vn 0.740660 0.000000 0.671880
vn 0.259355 0.941994 0.213032
vn 0.477431 0.786302 0.392159
vn 0.457952 0.785940 0.415426
vn 0.248853 0.941866 0.225745
vn 0.000000 1.000000 0.000000
vn 0.000000 1.000000 0.000000
vn -0.048776 0.000000 -0.998810
vn -0.097733 0.000000 -0.995213
vn -0.097733 0.000000 -0.995213
vn -0.048776 0.000000 -0.998810
vn 0.000000 -1.000000 0.000000
vn 0.000000 -1.000000 0.000000
vn 0.000000 -1.000000 0.000000
vn 0.000000 -1.000000 0.000000
vn 0.000000 -1.000000 0.000000
vn 0.000000 -1.000000 0.000000
vn 0.097691 0.000000 0.995217
vn 0.097691 0.000000 0.995217
vn 0.048733 0.000000 0.998812
vn 0.048733 0.000000 0.998812
vn 0.032796 0.941982 0.334058
vn 0.060365 0.786303 0.614885
vn 0.030140 0.785942 0.617565
vn 0.016384 0.941821 0.335715
vn 0.000000 1.000000 0.000000
vn 0.000000 1.000000 0.000000
vn -0.923734 0.000000 -0.383035
vn -0.923734 0.000000 -0.383035
vn -0.956834 0.000000 -0.290634
vn -0.956834 0.000000 -0.290634
vn 0.000000 -1.000000 0.000000
vn 0.000000 -1.000000 0.000000
vn 0.000000 -1.000000 0.000000
vn 0.000000 -1.000000 0.000000
vn 0.000000 -1.000000 0.000000
vn 0.000000 -1.000000 0.000000
vn 0.956834 0.000000 0.290634
vn 0.956834 0.000000 0.290634
vn 0.923734 0.000000 0.383035
vn 0.923734 0.000000 0.383035
vn 0.321142 0.941994 0.097545
vn 0.591173 0.786302 0.179566
vn 0.570722 0.786302 0.236655
vn 0.310033 0.941994 0.128558
vn 0.000000 1.000000 -0.000000
vn 0.000000 1.000000 -0.000000
vn -0.881735 0.000000 -0.471746
vn -0.881735 0.000000 -0.471746
vn 0.295936 0.941994 0.158332
vn 0.000000 1.000000 -0.000000
vn 0.544773 0.786302 0.291465
vn 0.881735 0.000000 0.471746
vn 0.881735 0.000000 0.471746
vn 0.000000 -1.000000 0.000000
vn 0.000000 -1.000000 0.000000
vn 0.000000 -1.000000 0.000000
vn -0.382446 0.000000 -0.923978
vn -0.382446 0.000000 -0.923978
vn -0.471183 0.000000 -0.882035
vn -0.471183 0.000000 -0.882035
vn 0.000000 -1.000000 0.000000
vn 0.000000 -1.000000 0.000000
vn 0.000000 -1.000000 0.000000
vn 0.000000 -1.000000 0.000000
vn 0.000000 -1.000000 0.000000
vn 0.000000 -1.000000 0.000000
vn 0.471183 0.000000 0.882035
vn 0.471183 0.000000 0.882035
vn 0.382446 0.000000 0.923978
vn 0.382446 0.000000 0.923978
vn 0.158143 0.941994 0.296037
vn 0.291117 0.786302 0.544959
vn 0.236291 0.786302 0.570873
vn 0.128360 0.941994 0.310115
vn 0.000000 1.000000 0.000000
vn 0.000000 1.000000 0.000000
vn -0.290024 0.000000 -0.957020
vn -0.290024 0.000000 -0.957020
vn 0.097341 0.941994 0.321204
vn 0.000000 1.000000 0.000000
vn 0.179189 0.786302 0.591287
vn 0.290024 0.000000 0.957020
vn 0.290024 0.000000 0.957020
vn 0.000000 -1.000000 0.000000
vn 0.000000 -1.000000 0.000000
vn 0.000000 -1.000000 0.000000
vn -0.980717 0.000000 -0.195433
vn -0.980717 0.000000 -0.195433
vn 0.000000 -1.000000 0.000000
vn 0.000000 -1.000000 0.000000
vn 0.000000 -1.000000 0.000000
vn 0.980717 0.000000 0.195433
vn 0.980717 0.000000 0.195433
vn 0.605929 0.786302 0.120747
vn 0.329158 0.941994 0.065593
vn 0.000000 1.000000 0.000000
vn -0.831241 0.000000 -0.555912
vn -0.831241 0.000000 -0.555912
vn 0.000000 -1.000000 0.000000
vn 0.000000 -1.000000 0.000000
vn 0.000000 -1.000000 0.000000
vn 0.831241 0.000000 0.555912
vn 0.831241 0.000000 0.555912
vn 0.513576 0.786302 0.343466
vn 0.278989 0.941994 0.186581
vn 0.000000 1.000000 0.000000
vn -0.555382 0.000000 -0.831596
vn -0.555382 0.000000 -0.831596
vn 0.000000 -1.000000 0.000000
vn 0.000000 -1.000000 0.000000
vn 0.000000 -1.000000 0.000000
vn 0.555382 0.000000 0.831595
vn 0.555382 0.000000 0.831595
vn 0.343139 0.786302 0.513795
vn 0.186403 0.941994 0.279108
vn 0.000000 1.000000 0.000000
vn -0.194808 0.000000 -0.980842
vn -0.194808 0.000000 -0.980842
vn 0.000000 -1.000000 0.000000
vn 0.000000 -1.000000 0.000000
vn 0.000000 -1.000000 0.000000
vn 0.194808 0.000000 0.980842
vn 0.194808 0.000000 0.980842
vn 0.120360 0.786302 0.606005
vn 0.065383 0.941994 0.329200
vn 0.000000 1.000000 0.000000
s 1
g OutsideBend_LP
usemtl initialShadingGroup
f 1/11/1 2/12/2 5/19/3 4/20/4
f 2/12/2 3/17/5 6/18/6 5/19/3
s 2
f 4/4/7 5/3/8 66/89/9 61/83/10
f 5/3/8 6/6/11 65/88/12 66/89/9
s 3
f 62/85/13 63/86/14 2/2/15 1/16/16
f 63/86/14 64/87/17 3/5/18 2/2/15
s 4
f 3/5/19 64/87/20 65/88/21 6/6/22
s 5
f 61/83/23 62/84/24 1/1/25 4/4/26
s 6
f 16/21/27 17/22/28 90/117/29 85/111/30
f 17/22/28 18/25/31 89/116/32 90/117/29
s 7
f 19/27/33 20/28/34 23/29/35 22/30/36
f 20/28/34 21/31/37 24/32/38 23/29/35
s 8
f 86/113/39 87/114/40 14/35/41 13/36/42
f 87/114/40 88/115/43 15/38/44 14/35/41
s 9
f 15/38/45 88/115/46 89/116/47 18/25/48
s 10
f 85/111/49 86/112/50 13/40/51 16/21/52
s 5
f 10/15/53 79/104/54 80/106/55 7/13/56
s 3
f 10/9/57 11/8/58 84/110/59 79/105/60
f 11/8/58 12/10/61 83/109/62 84/110/59
s 4
f 82/108/63 83/109/64 12/10/65 9/7/66
s 2
f 81/107/67 82/108/68 9/7/69 8/14/70
f 80/106/71 81/107/67 8/14/70 7/13/72
s 10
f 22/39/73 103/132/74 104/134/75 19/24/76
s 8
f 22/33/77 23/34/78 108/138/79 103/133/80
f 23/34/78 24/37/81 107/137/82 108/138/79
s 9
f 106/136/83 107/137/84 24/37/85 21/26/86
s 6
f 105/135/87 106/136/88 21/26/89 20/23/90
f 104/134/91 105/135/87 20/23/90 19/24/92
s 5
f 25/41/93 26/42/94 67/90/95 68/92/96
s 3
f 26/43/97 27/44/98 72/96/99 67/91/100
f 27/44/98 28/45/101 71/95/102 72/96/99
s 4
f 70/94/103 71/95/104 28/45/105 29/46/106
s 2
f 69/93/107 70/94/108 29/46/109 30/47/110
f 68/92/111 69/93/107 30/47/110 25/41/112
s 5
f 73/97/113 74/98/114 26/42/94 25/41/93
s 2
f 25/41/112 30/47/110 78/103/115 73/97/116
f 30/47/110 29/46/109 77/102/117 78/103/115
s 4
f 29/46/106 28/45/105 76/101/118 77/102/119
s 3
f 75/100/120 76/101/121 28/45/101 27/44/98
f 74/99/122 75/100/120 27/44/98 26/43/97
s 10
f 31/48/123 32/49/124 91/118/125 92/120/126
s 8
f 32/50/127 33/51/128 96/124/129 91/119/130
f 33/51/128 34/52/131 95/123/132 96/124/129
s 9
f 94/122/133 95/123/134 34/52/135 35/53/136
s 6
f 93/121/137 94/122/138 35/53/139 36/54/140
f 92/120/141 93/121/137 36/54/140 31/48/142
s 10
f 97/125/143 98/126/144 32/49/124 31/48/123
s 6
f 31/48/142 36/54/140 102/131/145 97/125/146
f 36/54/140 35/53/139 101/130/147 102/131/145
s 9
f 35/53/136 34/52/135 100/129/148 101/130/149
s 8
f 99/128/150 100/129/151 34/52/131 33/51/128
f 98/127/152 99/128/150 33/51/128 32/50/127
s 5
f 37/55/153 38/56/154 62/84/24 61/83/23
s 3
f 38/57/155 39/58/156 63/86/14 62/85/13
f 39/58/156 40/59/157 64/87/17 63/86/14
s 4
f 65/88/21 64/87/20 40/59/158 41/60/159
s 2
f 66/89/9 65/88/12 41/60/160 42/61/161
f 61/83/10 66/89/9 42/61/161 37/55/162
s 5
f 68/92/96 67/90/95 38/56/154 37/55/153
s 2
f 37/55/162 42/61/161 69/93/107 68/92/111
f 42/61/161 41/60/160 70/94/108 69/93/107
s 4
f 41/60/159 40/59/158 71/95/104 70/94/103
s 3
f 72/96/99 71/95/102 40/59/157 39/58/156
f 67/91/100 72/96/99 39/58/156 38/57/155
s 5
f 44/64/163 43/62/164 74/98/114 73/97/113
s 3
f 43/63/165 48/68/166 75/100/120 74/99/122
f 48/68/166 47/67/167 76/101/121 75/100/120
s 4
f 77/102/119 76/101/118 47/67/168 46/66/169
s 2
f 78/103/115 77/102/117 46/66/170 45/65/171
f 73/97/116 78/103/115 45/65/171 44/64/172
s 5
f 80/106/55 79/104/54 43/62/164 44/64/163
s 2
f 44/64/172 45/65/171 81/107/67 80/106/71
f 45/65/171 46/66/170 82/108/68 81/107/67
s 4
f 46/66/169 47/67/168 83/109/64 82/108/63
s 3
f 84/110/59 83/109/62 47/67/167 48/68/166
f 79/105/60 84/110/59 48/68/166 43/63/165
s 10
f 49/69/173 50/70/174 86/112/50 85/111/49
s 8
f 50/71/175 51/72/176 87/114/40 86/113/39
f 51/72/176 52/73/177 88/115/43 87/114/40
s 9
f 89/116/47 88/115/46 52/73/178 53/74/179
s 6
f 90/117/29 89/116/32 53/74/180 54/75/181
f 85/111/30 90/117/29 54/75/181 49/69/182
s 10
f 92/120/126 91/118/125 50/70/174 49/69/173
s 6
f 49/69/182 54/75/181 93/121/137 92/120/141
f 54/75/181 53/74/180 94/122/138 93/121/137
s 9
f 53/74/179 52/73/178 95/123/134 94/122/133
s 8
f 96/124/129 95/123/132 52/73/177 51/72/176
f 91/119/130 96/124/129 51/72/176 50/71/175
s 10
f 56/78/183 55/76/184 98/126/144 97/125/143
s 8
f 55/77/185 60/82/186 99/128/150 98/127/152
f 60/82/186 59/81/187 100/129/151 99/128/150
s 9
f 101/130/149 100/129/148 59/81/188 58/80/189
s 6
f 102/131/145 101/130/147 58/80/190 57/79/191
f 97/125/146 102/131/145 57/79/191 56/78/192
s 10
f 104/134/75 103/132/74 55/76/184 56/78/183
s 6
f 56/78/192 57/79/191 105/135/87 104/134/91
f 57/79/191 58/80/190 106/136/88 105/135/87
s 9
f 58/80/189 59/81/188 107/137/84 106/136/83
s 8
f 108/138/79 107/137/82 59/81/187 60/82/186
f 103/133/80 108/138/79 60/82/186 55/77/185
