# This file uses centimeters as units for non-parametric coordinates.

mtllib OutsideCorner_LP.mtl
g default
v -1.000000 0.000000 -7.477506
v -0.500000 0.000000 -6.977506
v 0.000000 0.000000 -6.477506
v -1.000000 1.000000 -7.477506
v -0.500000 1.000000 -6.977506
v 0.000000 0.607121 -6.477506
v 3.000000 1.000000 -7.477506
v 3.000000 1.000000 -6.977506
v 3.000000 0.607121 -6.477506
v 3.000000 0.000000 -7.477506
v 3.000000 0.000000 -6.977506
v 3.000000 0.000000 -6.477506
v -1.000000 0.000000 -3.477506
v -0.500000 0.000000 -3.477506
v 0.000000 0.000000 -3.477506
v -1.000000 1.000000 -3.477506
v -0.500000 1.000000 -3.477506
v 0.000000 0.607121 -3.477506
vt 0.289662 0.508257
vt 0.898263 0.501115
vt 0.571160 0.504954
vt 0.477327 0.506055
vt 0.804430 0.502216
vt 0.690494 0.503553
vt 0.142899 0.995646
vt 0.259094 0.994222
vt 0.698083 0.993730
vt 0.905851 0.991291
vt 0.999684 0.990190
vt 0.812018 0.992392
vt 0.025584 0.905769
vt 0.023854 0.764679
vt 0.484916 0.996231
vt 0.256246 0.761830
vt 0.140050 0.763255
vt 0.578748 0.995130
vt 0.297250 0.998434
vt 0.992095 0.500014
vt 0.025020 0.006651
vt 0.147017 0.006328
vt 0.147664 0.250322
vt 0.025667 0.250645
vt 0.269014 0.006005
vt 0.269406 0.154138
vt 0.477327 0.007872
vt 0.571160 0.006770
vt 0.578748 0.496947
vt 0.484916 0.498048
vt 0.690494 0.005370
vt 0.698083 0.495546
vt 0.999684 0.492007
vt 0.905851 0.493108
vt 0.898263 0.002932
vt 0.992095 0.001831
vt 0.812018 0.494209
vt 0.804430 0.004033
vt 0.297250 0.500250
vt 0.289662 0.010074
vn 0.000000 1.000000 0.000000
vn 0.000000 0.981300 0.192484
vn 0.000000 0.939437 0.342721
vn 0.000000 1.000000 0.000000
vn 0.000000 0.786302 0.617842
vn 0.000000 0.786302 0.617842
vn 1.000000 0.000000 0.000000
vn 1.000000 0.000000 0.000000
vn 1.000000 0.000000 0.000000
vn 1.000000 0.000000 0.000000
vn 1.000000 0.000000 0.000000
vn 1.000000 0.000000 0.000000
vn 0.000000 -1.000000 0.000000
vn 0.000000 -1.000000 0.000000
vn 0.000000 -1.000000 0.000000
vn 0.000000 -1.000000 0.000000
vn 0.000000 -1.000000 0.000000
vn 0.000000 -1.000000 0.000000
vn 0.000000 0.000000 1.000000
vn 0.000000 0.000000 1.000000
vn 0.000000 0.000000 1.000000
vn 0.000000 0.000000 1.000000
vn 0.000000 0.000000 -1.000000
vn 0.000000 0.000000 -1.000000
vn 0.000000 0.000000 -1.000000
vn 0.000000 0.000000 -1.000000
vn 0.000000 0.000000 1.000000
vn 0.000000 0.000000 1.000000
vn 0.000000 0.000000 1.000000
vn 0.000000 0.000000 1.000000
vn 0.000000 0.000000 1.000000
vn 0.000000 0.000000 1.000000
vn 0.000000 1.000000 0.000000
vn 0.342721 0.939437 0.000000
vn 0.192484 0.981300 0.000000
vn 0.000000 1.000000 0.000000
vn 0.617842 0.786302 0.000000
vn 0.617842 0.786302 0.000000
vn 0.000000 -1.000000 0.000000
vn 0.000000 -1.000000 0.000000
vn 0.000000 -1.000000 0.000000
vn 0.000000 -1.000000 0.000000
vn 0.000000 -1.000000 0.000000
vn 0.000000 -1.000000 0.000000
vn 1.000000 -0.000000 0.000000
vn 1.000000 -0.000000 0.000000
vn 1.000000 -0.000000 0.000000
vn 1.000000 -0.000000 0.000000
vn -1.000000 0.000000 0.000000
vn -1.000000 0.000000 0.000000
vn -1.000000 0.000000 0.000000
vn -1.000000 0.000000 0.000000
s 1
g OutsideCorner_LP
usemtl initialShadingGroup
f 4/4/1 5/3/2 8/18/3 7/15/4
f 5/3/2 6/6/5 9/9/6 8/18/3
s 2
f 7/8/7 8/7/8 11/17/9 10/16/10
f 8/7/8 9/13/11 12/14/12 11/17/9
s 3
f 10/11/13 11/10/14 2/2/15 1/20/16
f 11/10/14 12/12/17 3/5/18 2/2/15
s off
f 3/5/19 12/12/20 9/9/21 6/6/22
f 10/19/23 1/1/24 4/4/25 7/15/26
s 4
f 13/21/27 14/22/28 17/23/29 16/24/30
f 14/22/28 15/25/31 18/26/32 17/23/29
s 5
f 16/27/33 17/28/34 5/29/35 4/30/36
f 17/28/34 18/31/37 6/32/38 5/29/35
s 6
f 1/33/39 2/34/40 14/35/41 13/36/42
f 2/34/40 3/37/43 15/38/44 14/35/41
s off
f 15/38/45 3/37/46 6/32/47 18/31/48
f 1/39/49 13/40/50 16/27/51 4/30/52
